#!OML:ASF F:\VICON\USERDATA\Patient Classification 1\PLAYGROUND\JustinFriday\JustinFriday.ASF
:FULLY-SPECIFIED
:DEGREES
2445
root 15.2502 23.2833 49.6724 179.472 -18.678 -175.32
lowerback 49.6226 -18.1462 13.5277
upperback -1.25978 -17.0417 -2.96702
thorax -25.3898 -7.97817 0.753909
lowerneck -29.6378 -2.45182 -31.79
upperneck 47.4201 13.4995 17.5521
head 22.1953 2.35448 20.7723
rclavicle 1.13705e-013 -1.90833e-014
rhumerus 25.0036 37.6986 -73.5672
rradius 66.1993
rwrist 6.78891
rhand -18.5535 -8.86131
rfingers 7.12502
rthumb 7.73609 -38.6998
lclavicle 1.13705e-013 -1.90833e-014
lhumerus 19.8144 2.64804 50.1875
lradius 41.3908
lwrist -21.1661
lhand 1.24047 -30.6293
lfingers 7.12502
lthumb 26.778 -2.50472
rfemur -12.9853 -4.06601 28.8741
rtibia 22.3399
rfoot -7.0957 -10.839
rtoes 21.0881
lfemur -64.1955 12.9707 -9.169
ltibia 105.215
lfoot -17.9488 -20.4283
ltoes 24.5271
2446
root 15.2311 23.3234 49.7117 180.013 -17.8971 -175.587
lowerback 49.3872 -17.849 13.3365
upperback -1.42304 -16.7643 -2.86927
thorax -25.5054 -7.85265 0.757215
lowerneck -29.5449 -2.56466 -31.5727
upperneck 47.5548 13.3741 17.2932
head 22.464 2.24067 20.6635
rclavicle 6.12257e-014 -7.95139e-015
rhumerus 25.5569 37.9768 -73.626
rradius 65.4724
rwrist 7.01122
rhand -18.327 -9.00764
rfingers 7.12502
rthumb 7.95477 -38.838
lclavicle 6.12257e-014 -7.95139e-015
lhumerus 19.4134 2.33171 49.9254
lradius 41.1885
lwrist -20.0679
lhand 0.271408 -28.9889
lfingers 7.12502
lthumb 25.8503 -0.725765
rfemur -13.5722 -3.88643 28.5584
rtibia 22.2458
rfoot -6.43611 -10.2333
rtoes 20.1416
lfemur -64.077 13.647 -10.6344
ltibia 105.203
lfoot -22.4835 -11.4025
ltoes -5.41777
2447
root 15.2147 23.3481 49.7527 180.785 -16.7543 -175.886
lowerback 49.4105 -17.2525 12.7347
upperback -1.93594 -16.196 -2.53121
thorax -25.9937 -7.53672 1.07551
lowerneck -29.1951 -2.47477 -31.2979
upperneck 47.6533 13.4642 16.8574
head 22.4503 2.29484 20.2809
rclavicle 1.51076e-014 1.59028e-015
rhumerus 25.6759 38.4824 -73.7086
rradius 64.738
rwrist 7.2183
rhand -18.1066 -8.86799
rfingers 7.12502
rthumb 8.16749 -38.6901
lclavicle 1.51076e-014 1.59028e-015
lhumerus 18.7562 2.03932 50.0315
lradius 40.6628
lwrist -19.5137
lhand -0.3075 -28.4999
lfingers 7.12502
lthumb 25.2958 -0.157129
rfemur -14.483 -3.41874 28.2546
rtibia 22.257
rfoot -5.85096 -9.59842
rtoes 19.5525
lfemur -63.3718 14.1996 -10.64
ltibia 105.313
lfoot -21.322 -10.9989
ltoes -5.69998
2448
root 15.1937 23.3697 49.7946 181.268 -15.6015 -175.866
lowerback 48.5461 -16.8389 12.7292
upperback -1.49304 -15.8922 -2.65401
thorax -25.2476 -7.51145 0.604337
lowerneck -29.2065 -2.31218 -30.8977
upperneck 47.3409 13.236 16.8669
head 22.2541 2.34767 20.0346
rclavicle 1.64594e-013 3.65764e-014
rhumerus 27.162 38.4657 -73.6503
rradius 63.9135
rwrist 7.39717
rhand -18.1211 -8.59569
rfingers 7.12502
rthumb 8.15345 -38.4184
lclavicle 1.64594e-013 3.65764e-014
lhumerus 19.1828 2.17119 49.2501
lradius 40.1545
lwrist -19.0286
lhand -0.773545 -28.1924
lfingers 7.12502
lthumb 24.8492 0.212733
rfemur -15.1457 -3.03576 28.2573
rtibia 22.2958
rfoot -5.36555 -8.87516
rtoes 19.6469
lfemur -62.4585 14.8287 -10.3486
ltibia 105.343
lfoot -20.1353 -10.4923
ltoes -3.79352
2449
root 15.2114 23.3749 49.8612 182.811 -12.0486 -175.372
lowerback 47.667 -14.8042 11.3544
upperback -1.4963 -14.1036 -2.2715
thorax -24.6509 -6.78088 0.382427
lowerneck -28.9619 -2.21688 -30.577
upperneck 46.9981 12.9547 16.6247
head 22.0123 2.36018 19.577
rclavicle 1.70955e-013 -7.95139e-015
rhumerus 28.2461 38.6287 -73.5564
rradius 63.1243
rwrist 7.5308
rhand -18.3016 -8.63655
rfingers 7.12502
rthumb 7.97929 -38.4659
lclavicle 1.70955e-013 -7.95139e-015
lhumerus 19.0866 1.9663 48.5533
lradius 39.9954
lwrist -18.4348
lhand -1.62968 -27.6886
lfingers 7.12502
lthumb 24.0285 0.827275
rfemur -17.0561 -0.443463 28.7498
rtibia 22.4802
rfoot -4.57587 -7.7785
rtoes 19.209
lfemur -62.3401 18.4931 -9.78173
ltibia 105.539
lfoot -19.1117 -10.7113
ltoes -1.25464
2450
root 15.1871 23.3903 49.9043 183.026 -10.8528 -175.55
lowerback 47.7997 -14.313 10.9321
upperback -1.53948 -13.6965 -2.21727
thorax -24.6374 -6.59901 0.385537
lowerneck -29.0206 -2.16834 -30.2332
upperneck 47.09 12.9407 16.5539
head 22.1641 2.36425 19.5403
rclavicle -2.14687e-014 4.29375e-014
rhumerus 29.0495 38.7258 -73.6493
rradius 62.22
rwrist 7.88279
rhand -18.2675 -8.48487
rfingers 7.12502
rthumb 8.01214 -38.313
lclavicle -2.14687e-014 4.29375e-014
lhumerus 19.2429 2.08378 48.3579
lradius 39.2896
lwrist -18.5871
lhand -2.44479 -28.4499
lfingers 7.12502
lthumb 23.2467 0.166908
rfemur -17.4643 0.0498053 28.4649
rtibia 22.6441
rfoot -4.18624 -7.09041
rtoes 19.3112
lfemur -60.7499 18.9613 -9.62148
ltibia 105.16
lfoot -17.8746 -10.7032
ltoes 2.05435
2451
root 15.1617 23.4066 49.9505 183.192 -9.83154 -175.843
lowerback 48.2389 -13.8721 10.416
upperback -1.78902 -13.321 -2.06771
thorax -24.9347 -6.38761 0.607798
lowerneck -28.3363 -2.16897 -30.5482
upperneck 46.6382 12.5193 16.5999
head 21.6578 2.32239 19.2442
rclavicle 2.8625e-014 -2.22639e-014
rhumerus 29.4955 39.0552 -73.4676
rradius 61.6112
rwrist 7.96738
rhand -18.2914 -8.32231
rfingers 7.12502
rthumb 7.98908 -38.1513
lclavicle 2.8625e-014 -2.22639e-014
lhumerus 19.7669 2.65644 48.8134
lradius 37.7565
lwrist -19.3067
lhand -2.54219 -30.39
lfingers 7.12502
lthumb 23.1533 -1.76144
rfemur -17.851 0.375092 28.0423
rtibia 22.8266
rfoot -3.75738 -6.38911
rtoes 19.4211
lfemur -59.0938 19.0769 -9.68182
ltibia 104.494
lfoot -15.9616 -10.7136
ltoes 7.1172
2452
root 15.1154 23.4159 50.0018 183.418 -9.93368 -176.156
lowerback 48.6909 -14.1296 10.5937
upperback -2.38076 -13.334 -1.76407
thorax -25.7775 -6.32372 0.995586
lowerneck -28.0486 -2.50202 -29.8809
upperneck 47.1383 12.2146 15.8414
head 22.4424 2.04147 18.9282
rclavicle -4.21423e-014 6.36111e-015
rhumerus 29.5111 39.5588 -73.4261
rradius 60.9346
rwrist 8.14977
rhand -18.4276 -8.17979
rfingers 7.12502
rthumb 7.85765 -38.0138
lclavicle -4.21423e-014 6.36111e-015
lhumerus 18.9164 2.74561 49.2769
lradius 37.7269
lwrist -19.4474
lhand -2.16943 -31.9511
lfingers 7.12502
lthumb 23.5109 -3.3679
rfemur -18.3947 -0.347072 27.5727
rtibia 23.0917
rfoot -3.55114 -5.82895
rtoes 19.0097
lfemur -57.9319 17.8251 -10.0545
ltibia 103.587
lfoot -13.3153 -10.5908
ltoes 11.6326
2453
root 15.0861 23.4235 50.054 183.239 -9.02538 -176.611
lowerback 48.7472 -13.8867 10.2717
upperback -1.93633 -13.3722 -2.06265
thorax -25.2223 -6.37757 0.76804
lowerneck -28.2621 -2.25658 -29.252
upperneck 46.7048 12.0896 15.6269
head 22.1742 2.15882 18.4646
rclavicle -5.64548e-014 -5.40694e-014
rhumerus 31.0051 39.3401 -73.4899
rradius 60.1748
rwrist 8.53321
rhand -18.3081 -8.09681
rfingers 7.12502
rthumb 7.97302 -37.9264
lclavicle -5.64548e-014 -5.40694e-014
lhumerus 19.2362 3.02368 48.5292
lradius 37.6343
lwrist -19.0542
lhand -3.61236 -28.7037
lfingers 7.12502
lthumb 22.1262 0.0502767
rfemur -18.4559 -0.302196 26.975
rtibia 23.4339
rfoot -3.40304 -5.15999
rtoes 19.1815
lfemur -55.8094 17.576 -10.3103
ltibia 102.445
lfoot -11.3074 -10.1597
ltoes 17.6868
2454
root 15.0445 23.4185 50.0914 183.543 -8.22989 -176.875
lowerback 48.4255 -13.6919 10.1606
upperback -1.89747 -13.2312 -2.05351
thorax -25.0854 -6.32939 0.707574
lowerneck -28.4909 -1.98949 -28.2463
upperneck 46.8304 12.4216 14.887
head 22.3518 2.32771 17.9062
rclavicle -3.89618e-014 -6.52014e-014
rhumerus 31.9077 39.525 -73.4673
rradius 59.5052
rwrist 8.84329
rhand -17.9787 -8.13638
rfingers 7.12502
rthumb 8.29088 -37.9537
lclavicle -3.89618e-014 -6.52014e-014
lhumerus 18.7492 2.85249 47.9189
lradius 37.8105
lwrist -18.2015
lhand 2.07203 -26.0083
lfingers 7.12502
lthumb 27.5735 1.99185
rfemur -19.1021 -0.270225 26.5951
rtibia 23.864
rfoot -3.32702 -4.49323
rtoes 19.2139
lfemur -54.3946 17.3325 -10.5382
ltibia 101.175
lfoot -7.99044 -9.24802
ltoes 28.212
